<svg width="24" height="23" viewBox="0 0 24 23" fill="none" xmlns="http://www.w3.org/2000/svg">
<path d="M7.15878 14.7096L2.49878 2.16964L0.888782 1.99964C0.623565 1.97179 0.380274 1.83973 0.212429 1.6325C0.0445839 1.42527 -0.0340658 1.15986 -0.00621808 0.894641C0.0216297 0.629425 0.153694 0.386133 0.360921 0.218288C0.568149 0.0504433 0.833565 -0.0282064 1.09878 -0.000358705L2.71878 0.179641C3.08795 0.219381 3.43877 0.361103 3.73195 0.588937C4.02513 0.816771 4.2491 1.12172 4.37878 1.46964L8.99878 13.9996C9.07446 14.2435 9.054 14.507 8.94161 14.7363C8.82922 14.9655 8.6334 15.1431 8.39429 15.2326C8.15519 15.3221 7.8909 15.3167 7.65561 15.2177C7.42031 15.1186 7.23182 14.9332 7.12878 14.6996L7.15878 14.7096ZM23.8988 13.8196C23.8532 13.696 23.7835 13.5825 23.6939 13.4858C23.6043 13.3892 23.4964 13.3112 23.3765 13.2563C23.2566 13.2015 23.1271 13.1709 22.9953 13.1663C22.8636 13.1617 22.7322 13.1833 22.6088 13.2296L12.1588 17.1196C11.6754 16.6181 11.0326 16.3005 10.3406 16.2211C9.64865 16.1417 8.95062 16.3056 8.36626 16.6847C7.7819 17.0637 7.34763 17.6342 7.13795 18.2984C6.92827 18.9626 6.95624 19.6791 7.21706 20.325C7.47788 20.9708 7.9553 21.5058 8.56742 21.8381C9.17955 22.1704 9.88824 22.2794 10.5719 22.1463C11.2556 22.0132 11.8717 21.6464 12.3145 21.1088C12.7573 20.5711 12.9992 19.8962 12.9988 19.1996C12.9988 19.1196 12.9988 19.0396 12.9988 18.9496L23.3388 15.1096C23.5831 15.0116 23.779 14.8212 23.8838 14.5797C23.9887 14.3382 23.9941 14.0651 23.8988 13.8196ZM10.2188 12.8196C10.3557 13.1895 10.5642 13.5288 10.8324 13.818C11.1006 14.1072 11.4232 14.3407 11.7817 14.5051C12.1403 14.6695 12.5277 14.7616 12.9218 14.7761C13.316 14.7906 13.7091 14.7272 14.0788 14.5896L20.6188 12.1596C20.9887 12.0227 21.3279 11.8142 21.6171 11.546C21.9063 11.2778 22.1398 10.9552 22.3042 10.5967C22.4686 10.2382 22.5607 9.85074 22.5752 9.45658C22.5897 9.06243 22.5264 8.66928 22.3888 8.29964L20.4088 2.99964C20.2718 2.62975 20.0633 2.2905 19.7951 2.00129C19.5269 1.71208 19.2044 1.47859 18.8458 1.31419C18.4873 1.14979 18.0999 1.0577 17.7057 1.04319C17.3116 1.02868 16.9184 1.09204 16.5488 1.22964L9.99878 3.68964C9.25597 3.96825 8.65376 4.52975 8.32392 5.25128C7.99408 5.9728 7.96347 6.7956 8.23878 7.53964L10.2188 12.8196Z" fill="white"/>
</svg>
