<svg width="24" height="18" viewBox="0 0 24 18" fill="none" xmlns="http://www.w3.org/2000/svg">
<path d="M5.08 17.8599L0.870005 15.9199C0.609634 15.7994 0.389283 15.6068 0.23508 15.3648C0.0808782 15.1229 -0.000705327 14.8418 4.60392e-06 14.5549V1.82989C-0.000620086 1.57773 0.0623362 1.32947 0.183054 1.10808C0.303771 0.886692 0.478354 0.699307 0.690662 0.56325C0.902971 0.427193 1.14615 0.346855 1.39773 0.329663C1.64931 0.31247 1.90116 0.358979 2.13 0.464888L5.92 2.21489C6.09359 2.29522 6.24049 2.42365 6.34329 2.58494C6.44609 2.74623 6.50048 2.93362 6.5 3.12489V16.9549C6.49958 17.1226 6.457 17.2875 6.37617 17.4344C6.29534 17.5813 6.17887 17.7055 6.03746 17.7957C5.89605 17.8858 5.73425 17.9389 5.56694 17.9501C5.39963 17.9613 5.23218 17.9303 5.08 17.8599Z" fill="#898989"/>
<path d="M14.895 15.7749L9.895 17.9199C9.74278 17.9853 9.57668 18.0119 9.41164 17.9973C9.24659 17.9826 9.08777 17.9272 8.94945 17.836C8.81113 17.7448 8.69764 17.6206 8.61919 17.4746C8.54074 17.3287 8.49978 17.1655 8.5 16.9999V3.14485C8.49974 2.94913 8.55693 2.75762 8.66447 2.59409C8.77202 2.43055 8.92519 2.30217 9.105 2.22485L14.105 0.0798547C14.2572 0.0144055 14.4233 -0.012194 14.5884 0.00244697C14.7534 0.017088 14.9122 0.0725107 15.0506 0.163733C15.1889 0.254956 15.3024 0.37912 15.3808 0.525065C15.4593 0.67101 15.5002 0.834161 15.5 0.999855V14.8549C15.5003 15.0506 15.4431 15.2421 15.3355 15.4056C15.228 15.5692 15.0748 15.6975 14.895 15.7749Z" fill="#898989"/>
<path d="M21.87 17.5348L18.08 15.7848C17.9064 15.7045 17.7595 15.5761 17.6567 15.4148C17.5539 15.2535 17.4995 15.0661 17.5 14.8748V1.04484C17.5004 0.877155 17.543 0.712269 17.6238 0.565348C17.7047 0.418428 17.8211 0.294192 17.9625 0.204069C18.104 0.113946 18.2658 0.0608295 18.4331 0.0496059C18.6004 0.0383824 18.7678 0.0694122 18.92 0.139841L23.13 2.07984C23.3904 2.20034 23.6107 2.39298 23.7649 2.63492C23.9191 2.87685 24.0007 3.15794 24 3.44484V16.1698C24.0006 16.422 23.9377 16.6703 23.817 16.8916C23.6962 17.113 23.5217 17.3004 23.3093 17.4365C23.097 17.5725 22.8539 17.6529 22.6023 17.6701C22.3507 17.6873 22.0988 17.6408 21.87 17.5348Z" fill="#898989"/>
</svg>
