<svg width="24" height="25" viewBox="0 0 24 25" fill="none" xmlns="http://www.w3.org/2000/svg">
<path d="M15.678 0.046875C8.99071 0.046875 15.0093 0.046875 8.32198 0.046875C1.63467 0.046875 0 1.68155 0 8.36886C0 12.1583 0 9.03759 0 15.7249C0 22.4122 1.63467 24.0469 8.32198 24.0469C15.0093 24.0469 8.99071 24.0469 15.678 24.0469C22.3653 24.0469 24 22.4122 24 15.7249C24 9.03759 24 15.0562 24 8.36886C24 1.68155 22.3653 0.046875 15.678 0.046875ZM19.3932 17.211H17.6842C17.0155 17.211 16.7926 16.6908 15.6037 15.502C14.5635 14.4617 14.1176 14.3874 13.8947 14.3874C13.5232 14.3874 13.4489 14.536 13.4489 14.9819V16.6165C13.4489 17.0624 13.3003 17.2853 12.1858 17.2853C10.3282 17.2853 8.32198 16.1707 6.83591 14.0902C4.68111 11.0438 4.08669 8.74038 4.08669 8.29456C4.08669 8.07165 4.23529 7.77443 4.68111 7.77443H6.39009C6.83591 7.77443 7.05882 7.99734 7.13313 8.44316C7.95046 10.9695 9.43653 13.1243 10.031 13.1243C10.2539 13.1243 10.3282 12.9757 10.3282 12.4555V9.92923C10.2539 8.74038 9.65944 8.66607 9.65944 8.22025C9.65944 7.99734 9.88235 7.84874 10.1053 7.84874H12.8545C13.226 7.84874 13.3746 8.07165 13.3746 8.51747V11.9354C13.3746 12.3069 13.5975 12.4555 13.5975 12.4555C13.8204 12.4555 13.969 12.3069 14.4149 11.9354C15.678 10.5237 16.5697 8.36886 16.5697 8.36886C16.7183 8.14595 16.8669 7.84874 17.3127 7.84874H19.0217C19.5418 7.84874 19.6904 8.07165 19.5418 8.51747C19.3189 9.55772 17.1641 12.5299 17.1641 12.5299C16.9412 12.8271 16.9412 12.9757 17.1641 13.2729C17.387 13.4958 17.9071 14.0159 18.3529 14.536C19.096 15.3534 19.6904 16.0964 19.839 16.6165C20.0619 16.9138 19.839 17.211 19.3932 17.211Z" fill="white"/>
</svg>
