<svg width="24" height="25" viewBox="0 0 24 25" fill="none" xmlns="http://www.w3.org/2000/svg">
<path d="M15.3299 5.41429V12.3357C15.3299 12.9897 15.2754 13.6436 15.1664 13.9706C14.7304 15.4966 13.3134 16.6411 11.624 16.6411C9.55301 16.6411 7.91804 15.0061 7.91804 12.9352C7.91804 10.8642 9.55301 9.22922 11.624 9.22922C12.605 9.22922 13.4769 9.61071 14.1309 10.2102C14.3489 10.4282 14.5124 10.6462 14.6759 10.8642C14.6214 10.6462 14.5669 10.3737 14.5669 10.1557V1.87185L19.3628 3.34332V6.66776L15.3299 5.41429Z" fill="white"/>
<path fill-rule="evenodd" clip-rule="evenodd" d="M23.4993 3.27253C22.8998 1.85555 21.7553 0.820068 20.2838 0.384076C19.3574 0.16608 18.3764 0.0570818 17.3954 0.0570818H6.6046C5.62362 0.00258275 4.64263 0.111581 3.71615 0.384076C2.24468 0.820068 1.1002 1.85555 0.50071 3.27253C0.119217 4.36251 -0.0442804 5.50699 0.0102186 6.65147V17.4423C-0.0442804 18.5868 0.119217 19.7312 0.50071 20.8212C1.1002 22.2382 2.24468 23.2737 3.71615 23.7097C4.64263 23.9277 5.62362 24.0367 6.6046 24.0367H17.3954C18.3764 24.0912 19.3574 23.9822 20.2838 23.7097C21.7553 23.2737 22.8998 22.2382 23.4993 20.8212C23.8808 19.7312 24.0443 18.5868 23.9898 17.4423V6.65147C24.0443 5.50699 23.8808 4.36251 23.4993 3.27253ZM11.624 20.4013C15.7174 20.4013 19.0358 17.0829 19.0358 12.9895C19.0358 10.5003 17.8088 8.29776 15.9267 6.95364V6.22472L19.9596 7.4782V2.90223L13.9702 1.06456V5.9566C13.2328 5.71074 12.4439 5.57759 11.624 5.57759C7.53051 5.57759 4.2121 8.89599 4.2121 12.9895C4.2121 17.0829 7.53051 20.4013 11.624 20.4013Z" fill="white"/>
</svg>
