<svg width="24" height="25" viewBox="0 0 24 25" fill="none" xmlns="http://www.w3.org/2000/svg">
<path fill-rule="evenodd" clip-rule="evenodd" d="M24 12.0469C24 18.6743 18.6274 24.0469 12 24.0469C5.37258 24.0469 0 18.6743 0 12.0469C0 5.41946 5.37258 0.046875 12 0.046875C18.6274 0.046875 24 5.41946 24 12.0469ZM17.7273 12.0468C17.7273 8.88318 15.15 6.31954 12 6.31954C8.85001 6.31954 6.27274 8.88318 6.27274 12.0468C6.27274 15.2105 8.83638 17.7741 12 17.7741C15.1637 17.7741 17.7273 15.2105 17.7273 12.0468ZM5.72728 12.0468C5.72728 8.58318 8.53638 5.77409 12 5.77409C15.4637 5.77409 18.2727 8.58318 18.2727 12.0468C18.2727 15.5105 15.4637 18.3195 12 18.3195C8.53638 18.3195 5.72728 15.5105 5.72728 12.0468ZM15.1364 11.9104L9.81821 15.1831V8.91037L15.1364 11.9104Z" fill="white"/>
</svg>
