<svg width="24" height="25" viewBox="0 0 24 25" fill="none" xmlns="http://www.w3.org/2000/svg">
<path fill-rule="evenodd" clip-rule="evenodd" d="M22.2288 1.44628C22.7858 1.94599 23.2255 2.5627 23.5163 3.25223C23.8816 4.34653 24.0423 5.49872 23.9905 6.65123V17.4427C24.0423 18.5952 23.8816 19.7475 23.5162 20.8418C23.2254 21.5313 22.7857 22.148 22.2287 22.6477C21.6716 23.1474 21.011 23.5178 20.2941 23.7323C19.347 23.969 18.3714 24.0718 17.3957 24.0375H6.60431C5.62868 24.0718 4.65305 23.969 3.70597 23.7323C2.98903 23.5178 2.32837 23.1474 1.77132 22.6477C1.21427 22.148 0.77462 21.5313 0.483812 20.8418C0.11846 19.7475 -0.0423335 18.5952 0.00948744 17.4427V6.65123C-0.0423276 5.49872 0.118466 4.34653 0.483812 3.25223C0.774618 2.56271 1.21427 1.94599 1.77132 1.44628C2.32837 0.946568 2.98903 0.576216 3.70597 0.361718C4.65305 0.124973 5.62868 0.0222194 6.60431 0.0564801H17.3958C18.3714 0.0222191 19.347 0.124973 20.2941 0.361718C21.011 0.576215 21.6717 0.946568 22.2288 1.44628ZM16.3339 3.83466C16.3957 3.82204 16.9108 3.73057 16.9688 3.72556C17.354 3.69229 17.5704 3.94521 17.5704 4.35584L17.5706 15.6688C17.5801 15.9641 17.5577 16.2596 17.5037 16.55C17.4441 16.8451 17.3253 17.125 17.1544 17.3728C16.9819 17.6199 16.7581 17.8269 16.4983 17.9796C16.2399 18.1272 15.9582 18.2296 15.6654 18.2824C15.2456 18.3914 14.808 18.4135 14.3794 18.3476C14.056 18.2835 13.7566 18.1315 13.5141 17.9082C13.3284 17.7408 13.1783 17.5378 13.0727 17.3112C12.9671 17.0846 12.9081 16.8391 12.8993 16.5893C12.8904 16.3394 12.932 16.0904 13.0213 15.8569C13.1107 15.6234 13.2462 15.4103 13.4196 15.2303C13.6381 15.0072 13.904 14.8363 14.1976 14.7302C14.6272 14.5823 15.0684 14.4706 15.5166 14.3963L15.982 14.3025C16.1824 14.2819 16.3678 14.1871 16.502 14.0368C16.6197 13.8636 16.671 13.6536 16.6463 13.4456L16.6465 8.16073C16.6465 7.75657 16.4652 7.64641 16.0793 7.72061C15.8034 7.7744 9.87857 8.96926 9.87857 8.96926C9.54439 9.05001 9.42692 9.15924 9.42692 9.57389L9.42706 17.3175C9.43221 17.6119 9.40548 17.906 9.3473 18.1947C9.28774 18.4897 9.16888 18.7697 8.99795 19.0174C8.82553 19.2646 8.60174 19.4716 8.34188 19.6242C8.0837 19.7732 7.80201 19.8771 7.50893 19.9315C7.08916 20.0405 6.6516 20.0626 6.22296 19.9966C5.89924 19.931 5.59986 19.7775 5.35769 19.5528C4.99071 19.2099 4.77468 18.7354 4.75697 18.2334C4.73925 17.7314 4.9213 17.2428 5.2632 16.8748C5.48166 16.6518 5.74757 16.4809 6.04115 16.3748C6.47074 16.2269 6.91197 16.1152 7.36019 16.0409L7.82556 15.9471C8.02595 15.9265 8.21138 15.8317 8.34554 15.6814C8.46658 15.5108 8.5224 15.3025 8.50283 15.0942V6.17622C8.50219 6.09579 8.50772 6.01544 8.51938 5.93586C8.53912 5.75718 8.62456 5.59222 8.75913 5.47303C8.88842 5.37064 9.04113 5.30199 9.20353 5.27323L9.20626 5.27265L16.3339 3.83466Z" fill="white"/>
</svg>
