<svg width="24" height="25" viewBox="0 0 24 25" fill="none" xmlns="http://www.w3.org/2000/svg">
<path d="M12 24.0937C5.4375 24.0937 0 18.6562 0 12.0937C0 5.53125 5.4375 0 12 0C18.5625 0 24 5.34375 24 12C24 18.6562 18.6562 24.0937 12 24.0937ZM12 22.125C17.5312 22.125 22.0312 17.625 22.0312 12.0937C22.0312 6.5625 17.625 1.96875 12 1.96875C6.375 1.96875 1.96875 6.46875 1.96875 12C1.96875 17.5312 6.46875 22.125 12 22.125ZM7.96875 7.3125H14.0625C15.4688 7.3125 16.5938 8.625 16.5938 10.0312C16.5938 10.875 16.125 11.4375 15.4688 11.7187C16.5938 12.1875 17.25 12.8437 17.1562 14.0625C17.0625 15.75 15.8438 16.875 14.1562 16.875H8.0625L7.96875 7.3125ZM11.625 9.9375V10.875H12.5625C12.8438 10.875 13.0312 10.6875 13.0312 10.4062C13.0312 10.125 12.8438 9.9375 12.5625 9.9375H11.625ZM11.625 12.9375V14.1562H12.75C13.0312 14.1562 13.4062 13.875 13.4062 13.5C13.4062 13.125 13.125 12.8437 12.75 12.8437L11.625 12.9375Z" fill="white"/>
</svg>
