<svg width="25" height="25" viewBox="0 0 25 25" fill="none" xmlns="http://www.w3.org/2000/svg">
<path d="M24.75 3.07143V21.9286C24.75 23.3482 23.5982 24.5 22.1786 24.5H17.6089V15.0071H20.8554L21.3214 11.3857H17.6089V9.07143C17.6089 8.02143 17.8982 7.30893 19.4036 7.30893H21.3214V4.07321C20.9893 4.03036 19.8536 3.92857 18.525 3.92857C15.7607 3.92857 13.8643 5.61607 13.8643 8.71786V11.3911H10.6071V15.0125H13.8696V24.5H3.32143C1.90179 24.5 0.75 23.3482 0.75 21.9286V3.07143C0.75 1.65179 1.90179 0.5 3.32143 0.5H22.1786C23.5982 0.5 24.75 1.65179 24.75 3.07143Z" fill="white"/>
</svg>
