<svg width="24" height="25" viewBox="0 0 24 25" fill="none" xmlns="http://www.w3.org/2000/svg">
<path fill-rule="evenodd" clip-rule="evenodd" d="M13.125 21.877H10.875C9.8408 21.8771 8.81671 21.6735 7.86121 21.2778C6.90571 20.8821 6.03753 20.302 5.30624 19.5707C4.57495 18.8394 3.99489 17.9712 3.59918 17.0157C3.20347 16.0602 2.99987 15.0361 3 14.002V11.752C2.99987 10.7178 3.20347 9.69366 3.59918 8.73817C3.99489 7.78267 4.57495 6.91448 5.30624 6.18319C6.03753 5.45191 6.90571 4.87184 7.86121 4.47613C8.81671 4.08043 9.8408 3.87682 10.875 3.87695H13.125C14.1592 3.87682 15.1833 4.08043 16.1388 4.47613C17.0943 4.87184 17.9625 5.45191 18.6938 6.18319C19.425 6.91448 20.0051 7.78267 20.4008 8.73817C20.7965 9.69366 21.0001 10.7178 21 11.752V14.002C21.0001 15.0361 20.7965 16.0602 20.4008 17.0157C20.0051 17.9712 19.425 18.8394 18.6938 19.5707C17.9625 20.302 17.0943 20.8821 16.1388 21.2778C15.1833 21.6735 14.1592 21.8771 13.125 21.877V21.877Z" stroke="white" stroke-width="2" stroke-linecap="round" stroke-linejoin="round"/>
<path d="M12.352 21.877C11.036 21.1653 9.93686 20.1113 9.17077 18.8262C8.40469 17.5412 8.00016 16.073 8 14.577V11.177C7.99938 9.68171 8.4027 8.21406 9.16734 6.92911C9.93197 5.64416 11.0295 4.58963 12.344 3.87695" stroke="white" stroke-width="2" stroke-linecap="round" stroke-linejoin="round"/>
<path d="M11 21.877C12.316 21.1653 13.4151 20.1113 14.1812 18.8262C14.9473 17.5412 15.3518 16.073 15.352 14.577V11.177C15.3525 9.68161 14.949 8.21389 14.1842 6.92893C13.4194 5.64397 12.3217 4.5895 11.007 3.87695" stroke="white" stroke-width="2" stroke-linecap="round" stroke-linejoin="round"/>
<path d="M21 12.877H3" stroke="white" stroke-width="2" stroke-linecap="round" stroke-linejoin="round"/>
</svg>
