<svg width="54" height="54" viewBox="0 0 54 54" fill="none" xmlns="http://www.w3.org/2000/svg">
<path d="M27.112 53.6673C12.408 53.6673 0.445312 41.7047 0.445312 27.0007C0.445312 12.2967 12.408 0.333984 27.112 0.333984C41.816 0.333984 53.7786 12.2967 53.7786 27.0007C53.7786 41.7047 41.816 53.6673 27.112 53.6673ZM27.112 5.66732C15.3493 5.66732 5.77865 15.238 5.77865 27.0007C5.77865 38.7633 15.3493 48.334 27.112 48.334C38.8746 48.334 48.4453 38.7633 48.4453 27.0007C48.4453 15.238 38.8746 5.66732 27.112 5.66732Z" fill="#43B140"/>
<path d="M24.8712 40.1424L14.0898 29.3611L18.8018 24.6464L24.0205 29.8624L35.0658 14.3984L40.4925 18.2731L24.8712 40.1424Z" fill="#43B140"/>
</svg>
