<svg width="25" height="25" viewBox="0 0 25 25" fill="none" xmlns="http://www.w3.org/2000/svg">
<path d="M12.7527 6.3467C9.34743 6.3467 6.60075 9.094 6.60075 12.5C6.60075 15.906 9.34743 18.6533 12.7527 18.6533C16.1579 18.6533 18.9046 15.906 18.9046 12.5C18.9046 9.094 16.1579 6.3467 12.7527 6.3467ZM12.7527 16.5004C10.5521 16.5004 8.75312 14.7064 8.75312 12.5C8.75312 10.2936 10.5468 8.49955 12.7527 8.49955C14.9586 8.49955 16.7522 10.2936 16.7522 12.5C16.7522 14.7064 14.9532 16.5004 12.7527 16.5004ZM20.5912 6.095C20.5912 6.89295 19.9487 7.53024 19.1562 7.53024C18.3585 7.53024 17.7213 6.88759 17.7213 6.095C17.7213 5.30241 18.3638 4.65977 19.1562 4.65977C19.9487 4.65977 20.5912 5.30241 20.5912 6.095ZM24.6657 7.55166C24.5747 5.62909 24.1356 3.92608 22.7275 2.52298C21.3247 1.11988 19.6221 0.680743 17.6999 0.584347C15.7189 0.471884 9.78112 0.471884 7.80008 0.584347C5.8833 0.675388 4.18068 1.11453 2.77253 2.51763C1.36439 3.92073 0.930703 5.62373 0.834328 7.5463C0.721891 9.52778 0.721891 15.4669 0.834328 17.4483C0.925349 19.3709 1.36439 21.0739 2.77253 22.477C4.18068 23.8801 5.87794 24.3193 7.80008 24.4157C9.78112 24.5281 15.7189 24.5281 17.6999 24.4157C19.6221 24.3246 21.3247 23.8855 22.7275 22.477C24.1303 21.0739 24.5693 19.3709 24.6657 17.4483C24.7781 15.4669 24.7781 9.53314 24.6657 7.55166ZM22.1064 19.5744C21.6888 20.6241 20.8803 21.4327 19.8255 21.8558C18.246 22.4824 14.4981 22.3378 12.7527 22.3378C11.0072 22.3378 7.25396 22.477 5.67984 21.8558C4.63042 21.4381 3.82195 20.6294 3.39897 19.5744C2.77253 17.9946 2.91709 14.2458 2.91709 12.5C2.91709 10.7542 2.77789 7.00006 3.39897 5.42558C3.81659 4.37593 4.62507 3.56728 5.67984 3.1442C7.25931 2.51763 11.0072 2.66222 12.7527 2.66222C14.4981 2.66222 18.2514 2.52298 19.8255 3.1442C20.8749 3.56192 21.6834 4.37058 22.1064 5.42558C22.7328 7.00541 22.5883 10.7542 22.5883 12.5C22.5883 14.2458 22.7328 17.9999 22.1064 19.5744Z" fill="white"/>
</svg>
