<svg width="24" height="18" viewBox="0 0 24 18" fill="none" xmlns="http://www.w3.org/2000/svg">
<path d="M21 0H3C2.20435 0 1.44129 0.31607 0.87868 0.87868C0.31607 1.44129 0 2.20435 0 3L0 15C0 15.7956 0.31607 16.5587 0.87868 17.1213C1.44129 17.6839 2.20435 18 3 18H21C21.7956 18 22.5587 17.6839 23.1213 17.1213C23.6839 16.5587 24 15.7956 24 15V3C24 2.20435 23.6839 1.44129 23.1213 0.87868C22.5587 0.31607 21.7956 0 21 0V0ZM21.64 3.88L13.92 10.3C13.3809 10.749 12.7016 10.9949 12 10.9949C11.2984 10.9949 10.6191 10.749 10.08 10.3L2.36 3.88C2.1783 3.70429 2.06989 3.46628 2.05657 3.21387C2.04324 2.96146 2.126 2.71336 2.28819 2.5195C2.45038 2.32563 2.67996 2.20038 2.93076 2.16893C3.18156 2.13748 3.43497 2.20218 3.64 2.35L11.36 8.77C11.5397 8.91967 11.7661 9.00163 12 9.00163C12.2339 9.00163 12.4603 8.91967 12.64 8.77L20.36 2.35C20.5642 2.18026 20.8275 2.0986 21.0919 2.12298C21.3564 2.14736 21.6003 2.27578 21.77 2.48C21.9397 2.68422 22.0214 2.9475 21.997 3.21192C21.9726 3.47635 21.8442 3.72026 21.64 3.89V3.88Z" fill="#898989"/>
</svg>
