<svg width="18" height="24" viewBox="0 0 18 24" fill="none" xmlns="http://www.w3.org/2000/svg">
<path d="M5 11V4C5 2.93913 5.42143 1.92172 6.17157 1.17157C6.92172 0.421427 7.93913 0 9 0C10.0609 0 11.0783 0.421427 11.8284 1.17157C12.5786 1.92172 13 2.93913 13 4V11C13 12.0609 12.5786 13.0783 11.8284 13.8284C11.0783 14.5786 10.0609 15 9 15C7.93913 15 6.92172 14.5786 6.17157 13.8284C5.42143 13.0783 5 12.0609 5 11ZM13 23C13 22.7348 12.8946 22.4804 12.7071 22.2929C12.5196 22.1054 12.2652 22 12 22H6C5.73478 22 5.48043 22.1054 5.29289 22.2929C5.10536 22.4804 5 22.7348 5 23C5 23.2652 5.10536 23.5196 5.29289 23.7071C5.48043 23.8946 5.73478 24 6 24H12C12.2652 24 12.5196 23.8946 12.7071 23.7071C12.8946 23.5196 13 23.2652 13 23ZM18 10C18 9.73478 17.8946 9.48043 17.7071 9.29289C17.5196 9.10536 17.2652 9 17 9C16.7348 9 16.4804 9.10536 16.2929 9.29289C16.1054 9.48043 16 9.73478 16 10C16 11.8565 15.2625 13.637 13.9497 14.9497C12.637 16.2625 10.8565 17 9 17C7.14348 17 5.36301 16.2625 4.05025 14.9497C2.7375 13.637 2 11.8565 2 10C2 9.73478 1.89464 9.48043 1.70711 9.29289C1.51957 9.10536 1.26522 9 1 9C0.734784 9 0.48043 9.10536 0.292893 9.29289C0.105357 9.48043 0 9.73478 0 10C0 12.3869 0.948212 14.6761 2.63604 16.364C4.32387 18.0518 6.61305 19 9 19C11.3869 19 13.6761 18.0518 15.364 16.364C17.0518 14.6761 18 12.3869 18 10Z" fill="#898989"/>
</svg>
