<svg width="21" height="22" viewBox="0 0 21 22" fill="none" xmlns="http://www.w3.org/2000/svg">
<path d="M19.9078 13.0531C20.0438 12.3969 20.1281 11.6984 20.1281 11C20.1281 5.67969 15.8203 1.37656 10.5047 1.37656C9.80625 1.37656 9.1125 1.45625 8.45156 1.59688C7.56094 0.907813 6.45469 0.5 5.25 0.5C2.35313 0.5 0 2.85313 0 5.75C0 6.95469 0.407812 8.06094 1.09219 8.94687C0.95625 9.60312 0.871875 10.3016 0.871875 11C0.871875 16.3203 5.17969 20.6234 10.4953 20.6234C11.1937 20.6234 11.8875 20.5438 12.5484 20.4031C13.4391 21.0875 14.5453 21.4953 15.7453 21.4953C18.6422 21.4953 20.9953 19.1422 20.9953 16.2453C21 15.0453 20.5922 13.9391 19.9078 13.0531ZM10.7859 17.3422C7.71094 17.3422 5.1375 15.9734 5.1375 14.2953C5.1375 13.5453 5.55938 12.8609 6.52031 12.8609C7.98281 12.8609 8.11875 14.9656 10.65 14.9656C11.8547 14.9656 12.6328 14.4312 12.6328 13.7328C12.6328 12.8562 11.8828 12.7203 10.6641 12.4203C7.73438 11.6984 5.14219 11.3891 5.14219 8.33281C5.14219 5.55781 7.88906 4.53125 10.2563 4.53125C12.8391 4.53125 15.45 5.55781 15.45 7.12812C15.45 7.92031 14.9156 8.61875 14.0297 8.61875C12.7031 8.61875 12.6609 7.04844 10.5141 7.04844C9.30937 7.04844 8.54531 7.37656 8.54531 8.10312C8.54531 9.03125 9.52031 9.125 11.7844 9.65C13.725 10.0859 16.0359 10.9062 16.0359 13.2875C16.0359 16.0578 13.3594 17.3422 10.7859 17.3422Z" fill="#898989"/>
</svg>
