<svg width="14" height="24" viewBox="0 0 14 24" fill="none" xmlns="http://www.w3.org/2000/svg">
<path d="M11 0H3C2.20435 0 1.44129 0.31607 0.87868 0.87868C0.31607 1.44129 0 2.20435 0 3L0 21C0 21.7956 0.31607 22.5587 0.87868 23.1213C1.44129 23.6839 2.20435 24 3 24H11C11.7956 24 12.5587 23.6839 13.1213 23.1213C13.6839 22.5587 14 21.7956 14 21V3C14 2.20435 13.6839 1.44129 13.1213 0.87868C12.5587 0.31607 11.7956 0 11 0V0ZM7 23C6.80222 23 6.60888 22.9414 6.44443 22.8315C6.27998 22.7216 6.15181 22.5654 6.07612 22.3827C6.00043 22.2 5.98063 21.9989 6.01921 21.8049C6.0578 21.6109 6.15304 21.4327 6.29289 21.2929C6.43275 21.153 6.61093 21.0578 6.80491 21.0192C6.99889 20.9806 7.19996 21.0004 7.38268 21.0761C7.56541 21.1518 7.72159 21.28 7.83147 21.4444C7.94135 21.6089 8 21.8022 8 22C8 22.2652 7.89464 22.5196 7.70711 22.7071C7.51957 22.8946 7.26522 23 7 23Z" fill="#898989"/>
</svg>
