<svg width="24" height="24" viewBox="0 0 24 24" fill="none" xmlns="http://www.w3.org/2000/svg">
<path d="M11.9999 0.133057C5.37269 0.133057 0 5.46718 0 12.047C0 18.6271 5.37269 23.9608 11.9999 23.9608C18.6279 23.9608 24 18.6271 24 12.047C24 5.46761 18.628 0.133057 11.9999 0.133057ZM17.503 17.3164C17.2881 17.6664 16.8267 17.7774 16.4742 17.5625C13.6567 15.8539 10.1099 15.4669 5.93283 16.4144C5.53032 16.5055 5.12909 16.2551 5.03738 15.8553C4.94524 15.4555 5.19644 15.0572 5.59996 14.9661C10.1711 13.9292 14.092 14.3757 17.2551 16.2949C17.6076 16.5097 17.7194 16.9664 17.503 17.3164ZM18.9718 14.0724C18.701 14.5094 18.1249 14.6474 17.685 14.3785C14.4594 12.4101 9.54257 11.84 5.72735 12.9898C5.23255 13.1382 4.70995 12.8614 4.55978 12.371C4.41075 11.8797 4.68975 11.3618 5.18369 11.2125C9.54171 9.8996 14.9595 10.5355 18.6637 12.7955C19.1036 13.0644 19.2426 13.6362 18.9718 14.0724ZM19.0979 10.6943C15.2304 8.41359 8.84945 8.20388 5.15689 9.31657C4.56394 9.49512 3.93688 9.16278 3.75719 8.57407C3.5775 7.98507 3.91195 7.36292 4.50533 7.18395C8.74413 5.90637 15.7906 6.1532 20.2434 8.77766C20.7779 9.09193 20.9527 9.77582 20.636 10.3046C20.3208 10.8342 19.6295 11.0087 19.0979 10.6943Z" fill="white"/>
</svg>
