<svg width="23" height="15" viewBox="0 0 23 15" fill="none" xmlns="http://www.w3.org/2000/svg">
<path d="M22.4584 1.01719C22.6126 0.43125 22.4584 0 21.7167 0H19.2625C18.6375 0 18.35 0.370312 18.1959 0.782812C18.1959 0.782812 16.9459 4.20937 15.1792 6.43125C14.6084 7.07344 14.3459 7.27969 14.0334 7.27969C13.8792 7.27969 13.6417 7.07344 13.6417 6.4875V1.01719C13.6417 0.314062 13.4667 0 12.95 0H9.0917C8.70004 0 8.4667 0.328125 8.4667 0.632812C8.4667 1.29844 9.35004 1.45312 9.4417 3.32812V7.39688C9.4417 8.2875 9.30004 8.45156 8.98754 8.45156C8.1542 8.45156 6.1292 5.01094 4.9292 1.07344C4.68753 0.309375 4.45003 0 3.82086 0H1.36669C0.666691 0 0.525024 0.370312 0.525024 0.782812C0.525024 1.51406 1.35836 5.14688 4.4042 9.94688C6.43337 13.2234 9.2917 15 11.8917 15C13.4542 15 13.6459 14.6063 13.6459 13.9266C13.6459 10.7953 13.5042 10.5 14.2875 10.5C14.65 10.5 15.275 10.7063 16.7334 12.2859C18.4 14.1609 18.675 15 19.6084 15H22.0626C22.7626 15 23.1167 14.6062 22.9126 13.8281C22.4459 12.1922 19.2917 8.82656 19.15 8.60156C18.7875 8.07656 18.8917 7.84219 19.15 7.37344C19.1542 7.36875 22.1501 2.625 22.4584 1.01719Z" fill="white"/>
</svg>
